<svg width="24" height="24" viewBox="0 0 24 24" fill="none" xmlns="http://www.w3.org/2000/svg">
<path d="M22 4.5C22 4.76522 21.8946 5.01957 21.7071 5.20711C21.5196 5.39464 21.2652 5.5 21 5.5H13C12.7348 5.5 12.4804 5.39464 12.2929 5.20711C12.1054 5.01957 12 4.76522 12 4.5C12 4.23478 12.1054 3.98043 12.2929 3.7929C12.4804 3.60536 12.7348 3.5 13 3.5H21C21.2652 3.5 21.5196 3.60536 21.7071 3.7929C21.8946 3.98043 22 4.23479 22 4.5ZM21 8.5H15C14.7348 8.5 14.4804 8.60536 14.2929 8.7929C14.1054 8.98043 14 9.23479 14 9.5C14 9.76522 14.1054 10.0196 14.2929 10.2071C14.4804 10.3946 14.7348 10.5 15 10.5H21C21.2652 10.5 21.5196 10.3946 21.7071 10.2071C21.8946 10.0196 22 9.76522 22 9.5C22 9.23479 21.8946 8.98043 21.7071 8.7929C21.5196 8.60536 21.2652 8.5 21 8.5ZM21 13.5H17C16.7348 13.5 16.4804 13.6054 16.2929 13.7929C16.1054 13.9804 16 14.2348 16 14.5C16 14.7652 16.1054 15.0196 16.2929 15.2071C16.4804 15.3946 16.7348 15.5 17 15.5H21C21.2652 15.5 21.5196 15.3946 21.7071 15.2071C21.8946 15.0196 22 14.7652 22 14.5C22 14.2348 21.8946 13.9804 21.7071 13.7929C21.5196 13.6054 21.2652 13.5 21 13.5ZM21 18.5H19C18.7348 18.5 18.4804 18.6054 18.2929 18.7929C18.1054 18.9804 18 19.2348 18 19.5C18 19.7652 18.1054 20.0196 18.2929 20.2071C18.4804 20.3946 18.7348 20.5 19 20.5H21C21.2652 20.5 21.5196 20.3946 21.7071 20.2071C21.8946 20.0196 22 19.7652 22 19.5C22 19.2348 21.8946 18.9804 21.7071 18.7929C21.5196 18.6054 21.2652 18.5 21 18.5Z" fill="white"/>
<path d="M5.29287 21.7071C5.48041 21.8946 5.73476 22 5.99998 22C6.2652 22 6.51955 21.8946 6.70709 21.7071C6.89462 21.5196 6.99998 21.2652 6.99998 21V5.414L8.29498 6.707C8.48358 6.88916 8.73618 6.98995 8.99838 6.98768C9.26058 6.9854 9.51139 6.88023 9.6968 6.69482C9.88221 6.50941 9.98737 6.2586 9.98965 5.9964C9.99193 5.73421 9.89114 5.4816 9.70898 5.293L6.70898 2.293C6.61609 2.19987 6.50574 2.12599 6.38425 2.07558C6.26276 2.02516 6.13251 1.99921 6.00098 1.99921C5.86945 1.99921 5.7392 2.02516 5.61771 2.07558C5.49622 2.12599 5.38587 2.19987 5.29298 2.293L2.29298 5.293C2.11082 5.4816 2.01003 5.73421 2.01231 5.9964C2.01458 6.2586 2.11975 6.50941 2.30516 6.69482C2.49057 6.88023 2.74138 6.9854 3.00358 6.98768C3.26578 6.98995 3.51838 6.88916 3.70698 6.707L4.99998 5.414V21C4.99998 21.2652 5.10534 21.5196 5.29287 21.7071Z" fill="white"/>
</svg>
