<svg width="24" height="24" viewBox="0 0 24 24" fill="none" xmlns="http://www.w3.org/2000/svg">
<path d="M22 4.5C22 4.76522 21.8946 5.01957 21.7071 5.20711C21.5196 5.39464 21.2652 5.5 21 5.5H13C12.7348 5.5 12.4804 5.39464 12.2929 5.20711C12.1053 5.01957 12 4.76522 12 4.5C12 4.23478 12.1053 3.98043 12.2929 3.79289C12.4804 3.60536 12.7348 3.5 13 3.5H21C21.2652 3.5 21.5196 3.60536 21.7071 3.79289C21.8946 3.98043 22 4.23478 22 4.5ZM21 8.5H15C14.7348 8.5 14.4804 8.60536 14.2929 8.79289C14.1053 8.98043 14 9.23478 14 9.5C14 9.76522 14.1053 10.0196 14.2929 10.2071C14.4804 10.3946 14.7348 10.5 15 10.5H21C21.2652 10.5 21.5196 10.3946 21.7071 10.2071C21.8946 10.0196 22 9.76522 22 9.5C22 9.23478 21.8946 8.98043 21.7071 8.79289C21.5196 8.60536 21.2652 8.5 21 8.5ZM21 13.5H17C16.7348 13.5 16.4804 13.6054 16.2929 13.7929C16.1053 13.9804 16 14.2348 16 14.5C16 14.7652 16.1053 15.0196 16.2929 15.2071C16.4804 15.3946 16.7348 15.5 17 15.5H21C21.2652 15.5 21.5196 15.3946 21.7071 15.2071C21.8946 15.0196 22 14.7652 22 14.5C22 14.2348 21.8946 13.9804 21.7071 13.7929C21.5196 13.6054 21.2652 13.5 21 13.5ZM21 18.5H19C18.7348 18.5 18.4804 18.6054 18.2929 18.7929C18.1053 18.9804 18 19.2348 18 19.5C18 19.7652 18.1053 20.0196 18.2929 20.2071C18.4804 20.3946 18.7348 20.5 19 20.5H21C21.2652 20.5 21.5196 20.3946 21.7071 20.2071C21.8946 20.0196 22 19.7652 22 19.5C22 19.2348 21.8946 18.9804 21.7071 18.7929C21.5196 18.6054 21.2652 18.5 21 18.5ZM5.99998 2C5.73476 2 5.48041 2.10536 5.29287 2.29289C5.10534 2.48043 4.99998 2.73478 4.99998 3V18.586L3.70698 17.293C3.51838 17.1108 3.26578 17.01 3.00358 17.0123C2.74138 17.0146 2.49057 17.1198 2.30516 17.3052C2.11975 17.4906 2.01458 17.7414 2.01231 18.0036C2.01003 18.2658 2.11082 18.5184 2.29298 18.707L5.29298 21.707C5.38587 21.8001 5.49622 21.874 5.61771 21.9244C5.7392 21.9748 5.86945 22.0008 6.00098 22.0008C6.13251 22.0008 6.26276 21.9748 6.38425 21.9244C6.50574 21.874 6.61609 21.8001 6.70898 21.707L9.70898 18.707C9.89114 18.5184 9.99193 18.2658 9.98965 18.0036C9.98738 17.7414 9.88221 17.4906 9.6968 17.3052C9.51139 17.1198 9.26058 17.0146 8.99838 17.0123C8.73618 17.01 8.48358 17.1108 8.29498 17.293L6.99998 18.586V3C6.99998 2.73478 6.89462 2.48043 6.70709 2.29289C6.51955 2.10536 6.2652 2 5.99998 2Z" fill="white"/>
</svg>
