<svg width="24" height="24" viewBox="0 0 24 24" fill="none" xmlns="http://www.w3.org/2000/svg">
<path fill-rule="evenodd" clip-rule="evenodd" d="M6.35352 4.25H3C2.58579 4.25 2.25 4.58579 2.25 5C2.25 5.41421 2.58579 5.75 3 5.75H6.35352C6.67998 6.90425 7.74122 7.75 9 7.75C10.2588 7.75 11.32 6.90425 11.6465 5.75H21C21.4142 5.75 21.75 5.41421 21.75 5C21.75 4.58579 21.4142 4.25 21 4.25H11.6465C11.32 3.09575 10.2588 2.25 9 2.25C7.74122 2.25 6.67998 3.09575 6.35352 4.25ZM7.75 5C7.75 4.30964 8.30964 3.75 9 3.75C9.69036 3.75 10.25 4.30964 10.25 5C10.25 5.69036 9.69036 6.25 9 6.25C8.30964 6.25 7.75 5.69036 7.75 5Z" fill="white"/>
<path fill-rule="evenodd" clip-rule="evenodd" d="M3 11.25C2.58579 11.25 2.25 11.5858 2.25 12C2.25 12.4142 2.58579 12.75 3 12.75H14.3535C14.68 13.9043 15.7412 14.75 17 14.75C18.2588 14.75 19.32 13.9043 19.6465 12.75H21C21.4142 12.75 21.75 12.4142 21.75 12C21.75 11.5858 21.4142 11.25 21 11.25H19.6465C19.32 10.0957 18.2588 9.25 17 9.25C15.7412 9.25 14.68 10.0957 14.3535 11.25H3ZM17 10.75C17.6904 10.75 18.25 11.3096 18.25 12C18.25 12.6904 17.6904 13.25 17 13.25C16.3096 13.25 15.75 12.6904 15.75 12C15.75 11.3096 16.3096 10.75 17 10.75Z" fill="white"/>
<path fill-rule="evenodd" clip-rule="evenodd" d="M3 18.25C2.58579 18.25 2.25 18.5858 2.25 19C2.25 19.4142 2.58579 19.75 3 19.75H4.35352C4.67998 20.9043 5.74122 21.75 7 21.75C8.25878 21.75 9.32002 20.9043 9.64648 19.75H21C21.4142 19.75 21.75 19.4142 21.75 19C21.75 18.5858 21.4142 18.25 21 18.25H9.64648C9.32002 17.0957 8.25878 16.25 7 16.25C5.74122 16.25 4.67998 17.0957 4.35352 18.25H3ZM8.25 19C8.25 18.3096 7.69036 17.75 7 17.75C6.30964 17.75 5.75 18.3096 5.75 19C5.75 19.6904 6.30964 20.25 7 20.25C7.69036 20.25 8.25 19.6904 8.25 19Z" fill="white"/>
</svg>
